<?xml version="1.0" encoding="UTF-8" standalone="no"?>
<!-- Uploaded to: SVG Repo, www.svgrepo.com, Generator: SVG Repo Mixer Tools -->

<svg
   fill="#000000"
   width="800px"
   height="800px"
   viewBox="-2 0 19 19"
   class="cf-icon-svg"
   version="1.1"
   id="svg1"
   sodipodi:docname="complaint.svg"
   inkscape:version="1.3.2 (091e20e, 2023-11-25, custom)"
   xmlns:inkscape="http://www.inkscape.org/namespaces/inkscape"
   xmlns:sodipodi="http://sodipodi.sourceforge.net/DTD/sodipodi-0.dtd"
   xmlns="http://www.w3.org/2000/svg"
   xmlns:svg="http://www.w3.org/2000/svg">
  <defs
     id="defs1" />
  <sodipodi:namedview
     id="namedview1"
     pagecolor="#ffffff"
     bordercolor="#000000"
     borderopacity="0.25"
     inkscape:showpageshadow="2"
     inkscape:pageopacity="0.0"
     inkscape:pagecheckerboard="0"
     inkscape:deskcolor="#d1d1d1"
     inkscape:zoom="0.6956163"
     inkscape:cx="383.11351"
     inkscape:cy="413.30257"
     inkscape:window-width="1920"
     inkscape:window-height="1001"
     inkscape:window-x="-9"
     inkscape:window-y="-9"
     inkscape:window-maximized="1"
     inkscape:current-layer="svg1" />
  <path
     d="M 17,1.8640303 V 14.10472 a 1.6172688,1.8707597 0 0 1 -1.611451,1.864029 H 9.3179728 l -1.483466,2.750624 a 0.39704531,0.45927822 0 0 1 -0.7315523,0 L 5.6194886,15.968749 H -0.38709434 A 1.6172688,1.8707597 0 0 1 -2,14.10472 V 1.8640303 A 1.6172688,1.8707597 0 0 1 -0.38854871,0 H 15.388549 A 1.6172688,1.8707597 0 0 1 17,1.8640303 Z M 8.526791,12.048903 A 1.0267912,1.1877305 0 1 0 7.4999999,13.234951 1.0267912,1.1877305 0 0 0 8.526791,12.048903 Z M 6.6942742,8.970225 a 0.80572565,0.93201513 0 1 0 1.6114512,0 V 3.5278623 a 0.80572565,0.93201513 0 1 0 -1.6114512,0 z"/>
</svg>
