<?xml version="1.0" encoding="utf-8"?>

<!-- Modified to Dislike Icon -->
<svg width="800px" height="800px" viewBox="0 0 24 24" fill="none" xmlns="http://www.w3.org/2000/svg">
<g id="style=linear">
<g id="dislike">
<path id="vector" d="M16.34 13.8978L12.24 19.9978C11.84 20.5978 10.84 20.9978 10.04 20.6978C9.14 20.3978 8.54 19.3978 8.74 18.4978L9.24 15.2978C9.34 14.5978 8.84 14.0978 8.24 14.0978H4.24C2.74 14.0978 1.8199 12.9478 2.34 11.4978C2.86 10.0478 3.3199 7.44784 4.74 5.19784C5.3898 4.16823 6.1025 3.44784 7.31986 3.44784C11.3199 3.44784 17.34 3.44784 17.34 3.44784" stroke="#000000" stroke-width="1.5" stroke-miterlimit="10"/>
<path id="rec" d="M21.82 13.4478C21.82 14 21.3722 14.4478 20.82 14.4478H17.32C16.7677 14.4478 16.32 14 16.32 13.4478V3.44784H20.82C21.3722 3.44784 21.82 3.89555 21.82 4.44784V13.4478Z" stroke="#000000" stroke-width="1.5"/>
</g>
</g>
</svg>
