<?xml version="1.0" encoding="UTF-8" standalone="no"?>
<!-- Uploaded to: SVG Repo, www.svgrepo.com, Generator: SVG Repo Mixer Tools -->

<svg
   fill="currentColor"
   width="24"
   height="24"
   viewBox="0 0 24 24"
   focusable="false"
   aria-hidden="true"
   style="pointer-events: none; display: inherit; width: 100%; height: 100%;"
   version="1.1"
   id="svg1"
   sodipodi:docname="history.svg"
   inkscape:version="1.3.2 (091e20e, 2023-11-25, custom)"
   xmlns:inkscape="http://www.inkscape.org/namespaces/inkscape"
   xmlns:sodipodi="http://sodipodi.sourceforge.net/DTD/sodipodi-0.dtd"
   xmlns="http://www.w3.org/2000/svg"
   xmlns:svg="http://www.w3.org/2000/svg">
  <defs
     id="defs1" />
  <sodipodi:namedview
     id="namedview1"
     pagecolor="#ffffff"
     bordercolor="#000000"
     borderopacity="0.25"
     inkscape:showpageshadow="2"
     inkscape:pageopacity="0.0"
     inkscape:pagecheckerboard="0"
     inkscape:deskcolor="#d1d1d1"
     inkscape:zoom="23.923779"
     inkscape:cx="9.3630691"
     inkscape:cy="13.835607"
     inkscape:window-width="1920"
     inkscape:window-height="1001"
     inkscape:window-x="-9"
     inkscape:window-y="-9"
     inkscape:window-maximized="1"
     inkscape:current-layer="svg1" />
  <path
     clip-rule="evenodd"
     d="M 14.937091,2.4398089 C 12.617129,1.7277984 10.118503,1.8824673 7.905205,2.8758154 6.0999012,3.686494 4.5852591,5.0091803 3.541276,6.6665381 h 3.4586107 c 0.5519913,0 0.9999833,0.4480065 0.9999833,1.0000145 0,0.552008 -0.447992,1.000015 -0.9999833,1.000015 H 0 V 1.6664641 C 0,1.114456 0.4479927,0.66644929 0.9999838,0.66644929 c 0.5519911,0 0.9999838,0.44800671 0.9999838,1.00001481 V 5.3665189 C 3.2466141,3.4864911 5.0052523,1.9851355 7.086552,1.0517884 c 2.655957,-1.19201771 5.654575,-1.37735371 8.437197,-0.52267441 2.783955,0.85467931 5.159916,2.69337321 6.689225,5.17074311 1.527975,2.4773705 2.103966,5.4267479 1.619973,8.2974569 -0.485325,2.870709 -1.997301,5.466747 -4.253264,7.306774 -2.257297,1.838694 -5.106584,2.793375 -8.01587,2.68804 C 8.654527,23.88546 5.8839047,22.726776 3.7652724,20.729413 1.6479733,18.730717 0.3279947,16.03201 0.0533325,13.133301 c -0.051999,-0.549342 0.3519943,-1.037349 0.9013187,-1.08935 0.5493244,-0.05333 1.0373165,0.350672 1.090649,0.900014 0.2279963,2.416035 1.3279785,4.665402 3.0932833,6.33076 1.7639714,1.664025 4.0732675,2.630706 6.4985615,2.72004 2.423961,0.08667 4.797256,-0.709343 6.679892,-2.241366 1.879969,-1.533356 3.139949,-3.697388 3.542609,-6.089424 C 22.26364,11.27194 21.784981,8.8145696 20.510335,6.749206 19.237022,4.6851755 17.257054,3.1531528 14.937091,2.4411423 Z M 12.99979,5.9998616 c 0,-0.5520082 -0.447993,-1.0000148 -0.999984,-1.0000148 -0.551991,0 -0.999984,0.4480066 -0.999984,1.0000148 v 6.5147634 l 0.41866,0.298671 4.666591,3.333383 c 0.449326,0.321338 1.074649,0.217336 1.394644,-0.232004 0.321328,-0.44934 0.21733,-1.074682 -0.231996,-1.394687 L 12.99979,11.485276 Z"
     fill-rule="evenodd"
     id="path1"
     style="stroke-width:1.33333" />
</svg>
