<?xml version="1.0" encoding="UTF-8" standalone="no"?>
<svg
   width="24px"
   height="24px"
   viewBox="0 -960 960 960"
   xmlns="http://www.w3.org/2000/svg">
  <path
     d="M 99.047357,-340 Q 58.190323,-340 29.103415,-369.38333 0,-398.75 0,-439.99999 0,-481.25 29.103415,-510.61667 58.190323,-540 99.047357,-540 q 40.857033,0 69.960443,29.38333 29.08691,29.36667 29.08691,70.61668 0,41.24999 -29.08691,70.61666 Q 139.90439,-340 99.047357,-340 Z M 480,-340 q -40.85703,0 -69.94394,-29.38333 -29.10342,-29.36667 -29.10342,-70.61666 0,-41.25001 29.10342,-70.61668 Q 439.14297,-540 480,-540 q 40.85703,0 69.94394,29.38333 29.10342,29.36667 29.10342,70.61668 0,41.24999 -29.10342,70.61666 Q 520.85703,-340 480,-340 Z m 380.95265,0 q -40.85704,0 -69.96045,-29.38333 -29.08691,-29.36667 -29.08691,-70.61666 0,-41.25001 29.08691,-70.61668 Q 820.09561,-540 860.95265,-540 q 40.85703,0 69.94394,29.38333 Q 960,-481.25 960,-439.99999 960,-398.75 930.89659,-369.38333 901.80968,-340 860.95265,-340 Z"
     fill="#000"/>
</svg>
