<?xml version="1.0" encoding="UTF-8" standalone="no"?>
<!-- Uploaded to: SVG Repo, www.svgrepo.com, Generator: SVG Repo Mixer Tools -->

<svg
	height="24"
	width="24"
	viewBox="-120 -100 21 21"
	xmlns="http://www.w3.org/2000/svg">
		<path
   d="M -99,-90.094304 -108.77636,-100 v 6.489402 c -2.92893,0.155594 -5.66077,1.385427 -7.75023,3.502528 -2.23987,2.269453 -3.47341,5.286872 -3.47341,8.496456 V -79 l 1.19228,-2.201963 c 1.86023,-3.435661 5.42116,-5.569926 9.29304,-5.569926 0.24552,0 0.49235,0.0088 0.73832,0.02627 v 6.557017 z m -10.51468,2.034941 c -3.46759,0 -6.71266,1.529011 -8.93891,4.109486 1.09241,-4.744995 5.30152,-8.290161 10.31252,-8.290161 h 0.63529 v -4.651905 l 6.70884,6.797598 -6.70884,6.797597 v -4.601992 l -0.5572,-0.06994 c -0.47943,-0.06013 -0.96784,-0.09068 -1.4517,-0.09068 z"
   style="stroke-width:0.041286" />
</svg>