<?xml version="1.0" encoding="UTF-8" standalone="no"?>
<!-- Uploaded to: SVG Repo, www.svgrepo.com, Generator: SVG Repo Mixer Tools -->

<svg
   width="30px"
   height="30px"
   viewBox="0 0 24 24"
   xmlns="http://www.w3.org/2000/svg"
   xmlns:svg="http://www.w3.org/2000/svg">
  <path
     d="M 11.193,4.452 5.67,9 H 2.376 C 1.6160562,9 1,9.6160562 1,10.376 v 3.248 C 1,14.383944 1.6160562,15 2.376,15 h 3.293 l 5.524,4.548 c 0.33726,0.241599 0.806514,8.66e-4 0.807,-0.414 V 4.866 C 11.999514,4.4511335 11.53026,4.2104008 11.193,4.452 Z M 18.707,12 21.354,14.646 20.646,15.354 18,12.707 15.354,15.354 14.646,14.646 17.293,12 14.646,9.354 15.354,8.646 18,11.293 20.646,8.646 21.354,9.354 Z"
     fill="#000"/>
</svg>
