<?xml version="1.0" encoding="UTF-8" standalone="no"?>
<!-- Uploaded to: SVG Repo, www.svgrepo.com, Generator: SVG Repo Mixer Tools -->

<svg
   width="30px"
   height="30px"
   viewBox="0 0 24 24"
   xmlns="http://www.w3.org/2000/svg">
  <path
     d="M 12.193,4.452 6.67,9 H 3.376 C 2.6160562,9 2,9.6160562 2,10.376 v 3.248 C 2,14.383944 2.6160562,15 3.376,15 h 3.293 l 5.524,4.548 c 0.33726,0.241599 0.806514,8.66e-4 0.807,-0.414 V 4.866 C 12.999514,4.4511335 12.53026,4.2104008 12.193,4.452 Z m 4.277,0.892 c 1.630488,1.8285126 2.531051,4.1931124 2.53,6.643 0.004,2.457928 -0.911261,4.828512 -2.566,6.646 l -0.74,-0.672 C 17.179573,16.326182 18.001848,14.195971 18,11.987 18.000166,9.7824542 17.18975,7.6548024 15.723,6.009 Z"
     fill="#000"/>
</svg>
