<?xml version="1.0" encoding="UTF-8" standalone="no"?>
<!-- Uploaded to: SVG Repo, www.svgrepo.com, Generator: SVG Repo Mixer Tools -->

<svg
    width="30px"
    height="30px"
    viewBox="0 0 24 24"
    xmlns="http://www.w3.org/2000/svg">
    <path
        d="M 11.193,4.452 5.67,9 H 2.376 C 1.6160562,9 1,9.6160562 1,10.376 v 3.248 C 1,14.383944 1.6160562,15 2.376,15 h 3.293 l 5.524,4.548 c 0.33726,0.241599 0.806514,8.66e-4 0.807,-0.414 V 4.866 C 11.999514,4.4511335 11.53026,4.2104008 11.193,4.452 Z m 4.277,0.892 c 1.630488,1.8285126 2.531051,4.1931124 2.53,6.643 0.004,2.457928 -0.911261,4.828512 -2.566,6.646 l -0.74,-0.672 C 16.179573,16.326182 17.001848,14.195971 17,11.987 17.000166,9.7824542 16.18975,7.6548024 14.723,6.009 Z m 3.46,-3.933 c 2.616773,2.9021789 4.066598,6.6702984 4.07,10.578 -0.0063,3.900175 -1.44181,7.662795 -4.035,10.576 L 18.23,21.915 C 20.657796,19.178038 21.998948,15.646573 22,11.988 22.000629,8.3245527 20.647261,4.7901258 18.2,2.064 Z"
        fill="#000" />
</svg>